<?xml version="1.0" encoding="UTF-8" standalone="no"?>
<!-- Created with Inkscape (http://www.inkscape.org/) -->

<svg
   version="1.1"
   id="svg1"
   width="554.44"
   height="363.39999"
   viewBox="0 0 554.44 363.39999"
   sodipodi:docname="Svenska Postkodlotteriets Stiftelse_logotyp_CMYK.eps"
   xmlns:inkscape="http://www.inkscape.org/namespaces/inkscape"
   xmlns:sodipodi="http://sodipodi.sourceforge.net/DTD/sodipodi-0.dtd"
   xmlns="http://www.w3.org/2000/svg"
   xmlns:svg="http://www.w3.org/2000/svg">
  <defs
     id="defs1" />
  <sodipodi:namedview
     id="namedview1"
     pagecolor="#ffffff"
     bordercolor="#000000"
     borderopacity="0.25"
     inkscape:showpageshadow="2"
     inkscape:pageopacity="0.0"
     inkscape:pagecheckerboard="0"
     inkscape:deskcolor="#d1d1d1">
    <inkscape:page
       x="0"
       y="0"
       inkscape:label="1"
       id="page1"
       width="554.44"
       height="363.39999"
       margin="0"
       bleed="0" />
  </sodipodi:namedview>
  <g
     id="g1"
     inkscape:groupmode="layer"
     inkscape:label="1">
    <g
       id="group-R5">
      <path
         id="path2"
         d="M 211.828,11.7617 H 3946.42 c 110.49,0 200.07,89.5783 200.07,200.0703 V 2512.61 c 0,110.49 -89.58,200.06 -200.07,200.06 H 211.828 c -110.492,0 -200.0663,-89.57 -200.0663,-200.06 V 211.832 C 11.7617,101.34 101.336,11.7617 211.828,11.7617"
         style="fill:#ffffff;fill-opacity:1;fill-rule:nonzero;stroke:#33b540;stroke-width:23.5264;stroke-linecap:butt;stroke-linejoin:miter;stroke-miterlimit:10;stroke-dasharray:none;stroke-opacity:1"
         transform="matrix(0.13333333,0,0,-0.13333333,0,363.4)" />
      <path
         id="path3"
         d="M 16.8242,1362.22 H 4144.8 V 2494.5 c 0,120.49 -97.68,218.17 -218.18,218.17 H 235.004 c -120.496,0 -218.1798,-97.68 -218.1798,-218.17 V 1362.22"
         style="fill:#33b540;fill-opacity:1;fill-rule:nonzero;stroke:none"
         transform="matrix(0.13333333,0,0,-0.13333333,0,363.4)" />
      <path
         id="path4"
         d="M 16.8242,1362.22 H 4144.8 V 2494.5 c 0,120.49 -97.68,218.17 -218.18,218.17 H 235.004 c -120.496,0 -218.1798,-97.68 -218.1798,-218.17 z"
         style="fill:none;stroke:#33b540;stroke-width:25.656;stroke-linecap:butt;stroke-linejoin:miter;stroke-miterlimit:10;stroke-dasharray:none;stroke-opacity:1"
         transform="matrix(0.13333333,0,0,-0.13333333,0,363.4)" />
      <path
         id="path5"
         d="m 335.965,563.559 c 31.832,-16.309 83.07,-32.61 135.863,-32.61 48.137,0 71.426,16.301 71.426,42.711 0,25.61 -23.289,39.59 -82.293,59.77 -88.508,31.832 -147.512,79.968 -147.512,157.609 0,92.383 78.414,163.813 210.395,163.813 62.109,0 107.14,-11.641 141.301,-26.403 L 635.641,815.891 c -22.512,10.078 -61.332,24.839 -113.348,24.839 -42.699,0 -65.992,-15.531 -65.992,-38.832 0,-26.386 27.949,-36.476 93.941,-61.328 93.942,-34.941 135.863,-84.629 135.863,-157.59 0,-90.058 -69.871,-166.929 -222.816,-166.929 -62.887,0 -124.219,16.301 -153.723,31.828 l 26.399,115.68"
         style="fill:#33b540;fill-opacity:1;fill-rule:nonzero;stroke:none"
         transform="matrix(0.13333333,0,0,-0.13333333,0,363.4)" />
      <path
         id="path6"
         d="M 856.125,829.082 H 722.59 V 947.09 h 409.92 V 829.082 H 996.648 V 423.809 H 856.125 v 405.273"
         style="fill:#33b540;fill-opacity:1;fill-rule:nonzero;stroke:none"
         transform="matrix(0.13333333,0,0,-0.13333333,0,363.4)" />
      <path
         id="path7"
         d="M 1329.7,947.09 V 423.809 H 1189.18 V 947.09 h 140.52"
         style="fill:#33b540;fill-opacity:1;fill-rule:nonzero;stroke:none"
         transform="matrix(0.13333333,0,0,-0.13333333,0,363.4)" />
      <path
         id="path8"
         d="m 1418.21,947.09 h 336.16 V 832.18 h -195.64 v -96.27 h 184 V 622.559 h -184 V 423.809 H 1418.21 V 947.09"
         style="fill:#33b540;fill-opacity:1;fill-rule:nonzero;stroke:none"
         transform="matrix(0.13333333,0,0,-0.13333333,0,363.4)" />
      <path
         id="path9"
         d="M 1935.27,829.082 H 1801.74 V 947.09 h 409.92 V 829.082 H 2075.79 V 423.809 h -140.52 v 405.273"
         style="fill:#33b540;fill-opacity:1;fill-rule:nonzero;stroke:none"
         transform="matrix(0.13333333,0,0,-0.13333333,0,363.4)" />
      <path
         id="path10"
         d="m 2596.73,634.988 h -187.88 v -96.269 h 210.4 V 423.809 H 2268.33 V 947.09 h 340.05 V 832.18 h -199.53 v -83.84 h 187.88 V 634.988"
         style="fill:#33b540;fill-opacity:1;fill-rule:nonzero;stroke:none"
         transform="matrix(0.13333333,0,0,-0.13333333,0,363.4)" />
      <path
         id="path11"
         d="m 2689.11,947.09 h 140.52 V 541.039 h 201.08 v -117.23 h -341.6 V 947.09"
         style="fill:#33b540;fill-opacity:1;fill-rule:nonzero;stroke:none"
         transform="matrix(0.13333333,0,0,-0.13333333,0,363.4)" />
      <path
         id="path12"
         d="m 3100.59,563.559 c 31.83,-16.309 83.07,-32.61 135.86,-32.61 48.14,0 71.43,16.301 71.43,42.711 0,25.61 -23.29,39.59 -82.3,59.77 -88.5,31.832 -147.51,79.968 -147.51,157.609 0,92.383 78.42,163.813 210.4,163.813 62.11,0 107.14,-11.641 141.3,-26.403 l -29.5,-112.558 c -22.52,10.078 -61.34,24.839 -113.35,24.839 -42.7,0 -65.99,-15.531 -65.99,-38.832 0,-26.386 27.94,-36.476 93.94,-61.328 93.94,-34.941 135.86,-84.629 135.86,-157.59 0,-90.058 -69.87,-166.929 -222.82,-166.929 -62.88,0 -124.22,16.301 -153.72,31.828 l 26.4,115.68"
         style="fill:#33b540;fill-opacity:1;fill-rule:nonzero;stroke:none"
         transform="matrix(0.13333333,0,0,-0.13333333,0,363.4)" />
      <path
         id="path13"
         d="m 3847.45,634.988 h -187.88 v -96.269 h 210.39 V 423.809 H 3519.05 V 947.09 h 340.04 V 832.18 h -199.52 v -83.84 h 187.88 V 634.988"
         style="fill:#33b540;fill-opacity:1;fill-rule:nonzero;stroke:none"
         transform="matrix(0.13333333,0,0,-0.13333333,0,363.4)" />
      <path
         id="path14"
         d="m 277.637,2194.63 c 14.742,-7.95 39.039,-15.49 62.543,-15.49 24.297,0 35.851,9.63 35.851,23.87 0,14.66 -11.554,22.62 -40.234,34.76 -44.617,20.11 -67.719,47.74 -67.719,83.34 0,49.01 36.649,87.95 102.774,87.95 27.886,0 49.398,-5.86 64.132,-12.97 l -13.144,-59.06 c -10.754,5.02 -27.879,12.15 -51.387,12.15 -21.508,0 -33.062,-9.22 -33.062,-21.78 0,-13.82 11.554,-20.11 44.617,-35.19 45.012,-19.26 63.734,-47.32 63.734,-83.75 0,-49.84 -36.648,-89.21 -108.351,-89.21 -29.879,0 -58.157,7.95 -71.707,15.07 l 11.953,60.31"
         style="fill:#ffffff;fill-opacity:1;fill-rule:nonzero;stroke:none"
         transform="matrix(0.13333333,0,0,-0.13333333,0,363.4)" />
      <path
         id="path15"
         d="m 536.141,2123.02 -77.676,282.28 h 75.687 l 24.696,-112.66 c 7.172,-31 13.547,-62.41 19.121,-97.17 h 0.801 c 5.574,33.51 11.945,66.17 18.722,96.33 l 24.696,113.5 h 74.089 l -79.664,-282.28 h -80.472"
         style="fill:#ffffff;fill-opacity:1;fill-rule:nonzero;stroke:none"
         transform="matrix(0.13333333,0,0,-0.13333333,0,363.4)" />
      <path
         id="path16"
         d="m 875.504,2238.61 h -85.25 v -55.7 h 95.207 v -59.89 H 721.34 v 282.28 h 158.945 v -59.9 h -90.031 v -47.74 h 85.25 v -59.05"
         style="fill:#ffffff;fill-opacity:1;fill-rule:nonzero;stroke:none"
         transform="matrix(0.13333333,0,0,-0.13333333,0,363.4)" />
      <path
         id="path17"
         d="m 923.277,2123.02 v 282.28 h 76.082 l 41.431,-91.3 c 11.95,-24.71 27.09,-61.99 37.05,-91.72 h 1.2 c -3.2,33.08 -5.58,77.06 -5.58,122.7 v 60.32 h 62.14 v -282.28 h -70.11 l -42.62,94.23 c -12.75,27.64 -28.686,65.34 -39.042,95.49 h -1.195 c 1.594,-33.93 2.789,-77.9 2.789,-126.48 v -63.24 h -62.145"
         style="fill:#ffffff;fill-opacity:1;fill-rule:nonzero;stroke:none"
         transform="matrix(0.13333333,0,0,-0.13333333,0,363.4)" />
      <path
         id="path18"
         d="m 1184.56,2194.63 c 14.74,-7.95 39.04,-15.49 62.54,-15.49 24.3,0 35.85,9.63 35.85,23.87 0,14.66 -11.55,22.62 -40.23,34.76 -44.62,20.11 -67.72,47.74 -67.72,83.34 0,49.01 36.65,87.95 102.77,87.95 27.89,0 49.4,-5.86 64.14,-12.97 l -13.15,-59.06 c -10.75,5.02 -27.88,12.15 -51.38,12.15 -21.52,0 -33.07,-9.22 -33.07,-21.78 0,-13.82 11.55,-20.11 44.62,-35.19 45.01,-19.26 63.74,-47.32 63.74,-83.75 0,-49.84 -36.65,-89.21 -108.36,-89.21 -29.87,0 -58.16,7.95 -71.7,15.07 l 11.95,60.31"
         style="fill:#ffffff;fill-opacity:1;fill-rule:nonzero;stroke:none"
         transform="matrix(0.13333333,0,0,-0.13333333,0,363.4)" />
      <path
         id="path19"
         d="m 1386.89,2405.3 h 68.12 v -121.04 h 0.8 c 5.18,10.89 10.36,22.2 15.53,33.08 l 45.02,87.96 h 82.06 l -76.88,-121.46 79.67,-160.82 h -78.88 l -48.99,112.66 -18.33,-26.8 v -85.86 h -68.12 v 282.28"
         style="fill:#ffffff;fill-opacity:1;fill-rule:nonzero;stroke:none"
         transform="matrix(0.13333333,0,0,-0.13333333,0,363.4)" />
      <path
         id="path20"
         d="m 1744.57,2239.45 -10.75,51.51 c -3.59,15.92 -7.97,41.46 -11.56,58.22 h -0.79 c -3.98,-16.76 -7.97,-42.72 -11.16,-58.22 l -10.75,-51.51 z m -53.38,-54.03 -13.14,-62.4 h -70.11 l 71.7,282.28 h 89.23 l 70.91,-282.28 h -72.11 l -14.73,62.4 h -61.75"
         style="fill:#ffffff;fill-opacity:1;fill-rule:nonzero;stroke:none"
         transform="matrix(0.13333333,0,0,-0.13333333,0,363.4)" />
      <path
         id="path21"
         d="m 344.164,1774.22 c 3.582,-0.83 7.566,-0.83 13.543,-0.83 27.09,0 41.824,16.32 41.824,39.79 0,21.35 -11.945,36.43 -37.043,36.43 -8.765,0 -14.742,-0.84 -18.324,-1.68 z m -68.117,124.81 c 18.32,3.35 44.613,5.86 79.672,5.86 37.043,0 64.133,-6.28 83.254,-22.2 17.922,-14.65 28.679,-39.37 28.679,-66.59 0,-30.15 -9.558,-54.44 -25.89,-70.78 -20.321,-19.26 -50.989,-28.06 -82.461,-28.06 -5.977,0 -11.156,0.42 -15.137,0.84 v -97.58 h -68.117 v 278.51"
         style="fill:#ffffff;fill-opacity:1;fill-rule:nonzero;stroke:none"
         transform="matrix(0.13333333,0,0,-0.13333333,0,363.4)" />
      <path
         id="path22"
         d="m 607.84,1674.96 c 29.879,0 46.211,34.77 46.211,87.95 0,48.59 -16.332,85.44 -46.61,85.44 -29.476,0 -47.406,-36.85 -47.007,-86.28 -0.399,-52.34 17.531,-87.11 47.007,-87.11 z m -2.789,-58.62 c -78.473,0 -117.113,68.26 -117.113,144.48 0,78.73 44.218,146.17 121.097,146.17 82.461,0 117.516,-72.46 117.516,-141.56 0,-95.49 -47.403,-149.09 -121.098,-149.09 h -0.402"
         style="fill:#ffffff;fill-opacity:1;fill-rule:nonzero;stroke:none"
         transform="matrix(0.13333333,0,0,-0.13333333,0,363.4)" />
      <path
         id="path23"
         d="m 763.551,1692.13 c 14.742,-7.95 39.039,-15.49 62.547,-15.49 24.293,0 35.847,9.63 35.847,23.87 0,14.66 -11.554,22.62 -40.234,34.76 -44.617,20.11 -67.719,47.75 -67.719,83.35 0,49 36.653,87.95 102.774,87.95 27.886,0 49.398,-5.86 64.14,-12.98 l -13.152,-59.06 c -10.754,5.02 -27.879,12.15 -51.387,12.15 -21.512,0 -33.062,-9.22 -33.062,-21.78 0,-13.82 11.55,-20.1 44.617,-35.19 45.016,-19.26 63.738,-47.32 63.738,-83.75 0,-49.84 -36.652,-89.21 -108.355,-89.21 -29.871,0 -58.157,7.96 -71.703,15.07 l 11.949,60.31"
         style="fill:#ffffff;fill-opacity:1;fill-rule:nonzero;stroke:none"
         transform="matrix(0.13333333,0,0,-0.13333333,0,363.4)" />
      <path
         id="path24"
         d="m 1010.51,1840.39 h -61.748 v 62.41 h 193.598 v -62.41 h -62.94 v -219.87 h -68.91 v 219.87"
         style="fill:#ffffff;fill-opacity:1;fill-rule:nonzero;stroke:none"
         transform="matrix(0.13333333,0,0,-0.13333333,0,363.4)" />
      <path
         id="path25"
         d="m 1172.6,1902.8 h 68.12 v -121.04 h 0.8 c 5.18,10.89 10.36,22.2 15.53,33.09 l 45.02,87.95 h 82.06 l -76.88,-121.46 79.67,-160.82 h -78.88 l -48.99,112.66 -18.33,-26.8 v -85.86 h -68.12 v 282.28"
         style="fill:#ffffff;fill-opacity:1;fill-rule:nonzero;stroke:none"
         transform="matrix(0.13333333,0,0,-0.13333333,0,363.4)" />
      <path
         id="path26"
         d="m 1503.99,1674.96 c 29.88,0 46.22,34.77 46.22,87.95 0,48.59 -16.34,85.44 -46.61,85.44 -29.48,0 -47.41,-36.85 -47.01,-86.28 -0.4,-52.34 17.53,-87.11 47.01,-87.11 z m -2.78,-58.62 c -78.48,0 -117.12,68.26 -117.12,144.48 0,78.73 44.22,146.17 121.1,146.17 82.46,0 117.52,-72.46 117.52,-141.56 0,-95.49 -47.41,-149.09 -121.1,-149.09 h -0.4"
         style="fill:#ffffff;fill-opacity:1;fill-rule:nonzero;stroke:none"
         transform="matrix(0.13333333,0,0,-0.13333333,0,363.4)" />
      <path
         id="path27"
         d="m 1726.64,1675.38 c 3.18,-0.84 8.76,-0.84 13.14,-0.84 39.04,-0.41 68.52,26.39 68.52,91.73 0,54.86 -25.5,82.92 -63.74,82.92 -8.76,0 -14.34,-0.84 -17.92,-1.67 z m -68.52,223.65 c 19.92,3.35 47.8,5.86 76.88,5.86 47,0 77.28,-8.8 101.58,-27.64 27.88,-21.78 44.22,-57.8 44.22,-110.14 0,-56.55 -18.72,-95.5 -44.61,-117.27 -26.3,-22.2 -65.34,-32.25 -113.94,-32.25 -29.48,0 -51.38,2.51 -64.13,4.18 v 277.26"
         style="fill:#ffffff;fill-opacity:1;fill-rule:nonzero;stroke:none"
         transform="matrix(0.13333333,0,0,-0.13333333,0,363.4)" />
      <path
         id="path28"
         d="m 1915.83,1902.8 h 68.91 v -221.55 h 92.02 v -60.73 h -160.93 v 282.28"
         style="fill:#ffffff;fill-opacity:1;fill-rule:nonzero;stroke:none"
         transform="matrix(0.13333333,0,0,-0.13333333,0,363.4)" />
      <path
         id="path29"
         d="m 2203.41,1674.96 c 29.87,0 46.21,34.77 46.21,87.95 0,48.59 -16.34,85.44 -46.61,85.44 -29.48,0 -47.41,-36.85 -47.01,-86.28 -0.4,-52.34 17.53,-87.11 47.01,-87.11 z m -2.79,-58.62 c -78.48,0 -117.12,68.26 -117.12,144.48 0,78.73 44.22,146.17 121.1,146.17 82.46,0 117.51,-72.46 117.51,-141.56 0,-95.49 -47.4,-149.09 -121.1,-149.09 h -0.39"
         style="fill:#ffffff;fill-opacity:1;fill-rule:nonzero;stroke:none"
         transform="matrix(0.13333333,0,0,-0.13333333,0,363.4)" />
      <path
         id="path30"
         d="m 2394.18,1840.39 h -61.75 v 62.41 h 193.6 v -62.41 h -62.94 v -219.87 h -68.91 v 219.87"
         style="fill:#ffffff;fill-opacity:1;fill-rule:nonzero;stroke:none"
         transform="matrix(0.13333333,0,0,-0.13333333,0,363.4)" />
      <path
         id="path31"
         d="m 2606.86,1840.39 h -61.75 v 62.41 h 193.61 v -62.41 h -62.94 v -219.87 h -68.92 v 219.87"
         style="fill:#ffffff;fill-opacity:1;fill-rule:nonzero;stroke:none"
         transform="matrix(0.13333333,0,0,-0.13333333,0,363.4)" />
      <path
         id="path32"
         d="m 2923.13,1736.11 h -85.24 v -55.7 h 95.2 v -59.89 h -164.12 v 282.28 h 158.94 v -59.89 h -90.02 v -47.75 h 85.24 v -59.05"
         style="fill:#ffffff;fill-opacity:1;fill-rule:nonzero;stroke:none"
         transform="matrix(0.13333333,0,0,-0.13333333,0,363.4)" />
      <path
         id="path33"
         d="m 3039.01,1780.09 h 15.55 c 25.09,0 39.03,15.07 39.03,36.43 0,20.94 -11.55,33.93 -34.25,34.35 -10.76,0 -17.13,-0.42 -20.33,-1.68 z m -68.11,118.94 c 19.52,3.35 47.8,5.86 79.27,5.86 37.84,0 66.93,-5.44 86.84,-21.78 17.14,-14.65 25.1,-33.92 25.1,-61.15 0,-33.08 -21.51,-59.05 -44.22,-68.68 v -1.26 c 17.53,-7.95 27.09,-25.54 33.07,-51.09 7.17,-28.9 15.93,-69.52 21.11,-80.41 h -70.91 c -3.58,7.95 -10.35,32.25 -17.12,65.75 -6.38,33.93 -15.54,41.05 -35.06,41.05 h -9.97 v -106.8 h -68.11 v 278.51"
         style="fill:#ffffff;fill-opacity:1;fill-rule:nonzero;stroke:none"
         transform="matrix(0.13333333,0,0,-0.13333333,0,363.4)" />
      <path
         id="path34"
         d="m 3270.02,1902.8 v -282.28 h -68.91 v 282.28 h 68.91"
         style="fill:#ffffff;fill-opacity:1;fill-rule:nonzero;stroke:none"
         transform="matrix(0.13333333,0,0,-0.13333333,0,363.4)" />
      <path
         id="path35"
         d="m 3471.17,1736.11 h -85.25 v -55.7 h 95.21 v -59.89 h -164.12 v 282.28 h 158.94 v -59.89 h -90.03 v -47.75 h 85.25 v -59.05"
         style="fill:#ffffff;fill-opacity:1;fill-rule:nonzero;stroke:none"
         transform="matrix(0.13333333,0,0,-0.13333333,0,363.4)" />
      <path
         id="path36"
         d="m 3563.55,1840.39 h -61.75 v 62.41 h 193.61 v -62.41 h -62.95 v -219.87 h -68.91 v 219.87"
         style="fill:#ffffff;fill-opacity:1;fill-rule:nonzero;stroke:none"
         transform="matrix(0.13333333,0,0,-0.13333333,0,363.4)" />
      <path
         id="path37"
         d="m 3724.46,1692.13 c 14.74,-7.95 39.04,-15.49 62.55,-15.49 24.3,0 35.85,9.63 35.85,23.87 0,14.66 -11.55,22.62 -40.24,34.76 -44.61,20.11 -67.71,47.75 -67.71,83.35 0,49 36.64,87.95 102.77,87.95 27.88,0 49.39,-5.86 64.14,-12.98 l -13.15,-59.06 c -10.76,5.02 -27.89,12.15 -51.39,12.15 -21.51,0 -33.07,-9.22 -33.07,-21.78 0,-13.82 11.56,-20.1 44.62,-35.19 45.02,-19.26 63.73,-47.32 63.73,-83.75 0,-49.84 -36.64,-89.21 -108.35,-89.21 -29.87,0 -58.16,7.96 -71.7,15.07 l 11.95,60.31"
         style="fill:#ffffff;fill-opacity:1;fill-rule:nonzero;stroke:none"
         transform="matrix(0.13333333,0,0,-0.13333333,0,363.4)" />
    </g>
  </g>
</svg>
