<svg viewBox="0 0 2055 734" fill="#777" xmlns="http://www.w3.org/2000/svg"><g clip-path="url(#a)"><path d="M996.6 113.8v129.5h-18.5v-57.6h-80.5v57.6h-18.5V113.8h18.5v55.1h80.5v-55.1h18.5zm64.2 126.3c-8.7-4.6-15.3-11.1-20-19.5-4.7-8.4-7-18.3-7-29.6v-77h18.2v76.5c0 8.3 1.6 15.4 4.7 21.2 3.1 5.9 7.6 10.3 13.5 13.3s12.8 4.6 21 4.6c8.1 0 15-1.5 20.9-4.6 5.9-3 10.4-7.5 13.5-13.3 3.1-5.9 4.7-12.9 4.7-21.2V114h18.2v77c0 11.3-2.3 21.2-7 29.6-4.7 8.4-11.4 15-20 19.5-8.7 4.6-18.7 6.9-30.2 6.9-11.8 0-21.9-2.3-30.5-6.9zM1302.9 114v129.3h-24.8l-75.3-112.7v112.7h-17.4V114h27.3l72.9 109.4V114h17.3zm154.5 58.4v9.6c0 13.6-2.7 25.3-8 35.1s-12.8 17.1-22.4 22.2c-9.6 5-20.8 7.6-33.6 7.6-14.5 0-27.3-3-38.5-9s-19.9-14.2-26.1-24.5c-6.2-10.4-9.3-21.9-9.3-34.5 0-12.7 3-24.2 8.9-34.6 6-10.4 14.6-18.6 26.1-24.7 11.4-6.1 25-9.1 40.7-9.1 11.1 0 20.8 1.2 28.9 3.5 8.2 2.3 15.7 5.7 22.4 10v20.1c-6.4-4.9-13.9-8.9-22.7-11.8-8.8-2.9-18.3-4.4-28.5-4.4-12.4 0-22.9 2.2-31.4 6.6-8.5 4.4-14.8 10.4-19 17.9-4.2 7.6-6.3 16.2-6.3 25.9 0 10 2.3 18.9 6.8 26.7 4.5 7.8 10.9 13.9 19.2 18.2 8.3 4.4 18 6.5 29.1 6.5 9.1 0 17-1.6 23.8-4.8 6.8-3.2 12-7.9 15.9-14.1 3.8-6.2 6-13.6 6.4-22.2h-82.1l3.9-16.2h95.8zm108.4 35.5h-61.2l-14 35.4h-19.4l52.3-129.3h24.5l51.3 129.3h-19.7l-13.8-35.4zm-5.9-15.2l-24.5-62.9-24.8 62.9h49.3zm130.2 50.6l-62-58.6v58.6h-18.5V114h63.9c7.7 0 14.6 1.6 20.6 4.9 6.1 3.2 10.8 7.7 14.2 13.4 3.4 5.7 5.1 12.1 5.1 19.2 0 7.6-1.7 14.2-5.1 19.9-3.4 5.7-8.4 10.1-15 13.3-6.6 3.1-14.5 4.7-23.8 4.7h-13l59.9 53.9h-26.3zm-62.1-68.2h39.1c8.6 0 15.3-2 20-6 4.7-4 7.1-9.6 7.1-16.9 0-4.4-1-8.2-3-11.5-2-3.3-4.8-5.8-8.5-7.6-3.7-1.8-8-2.7-13-2.7H1628v44.7zm114.9-61.3h18.5v129.5h-18.5V113.8zm136.8 94.1h-61.2l-14 35.4h-19.4l52.3-129.3h24.5l51.3 129.3h-19.7l-13.8-35.4zm-5.9-15.2l-24.5-62.9-24.8 62.9h49.3zM2055 114v129.3h-24.8l-75.3-112.7v112.7h-17.4V114h27.3l72.9 109.4V114h17.3zM996.6 301.9v129.5h-18.5v-57.6h-80.5v57.6h-18.5V301.9h18.5V357h80.5v-55.1h18.5zm135.5 112.9v16.6h-96.4V302.1h95.5v16.7h-77v36.3h72v16.2h-72v43.5h77.9zm111.9-.5v17.1h-91.4V302.1h18.5v112.2h72.9zm37.7 16.1c-8.8-2.8-16.7-6.7-23.5-11.9v-19.2c7.8 5.9 15.7 10.4 24 13.4 8.2 3.1 17.1 4.6 26.6 4.6 10.4 0 18.3-1.8 23.8-5.4 5.5-3.6 8.3-8.9 8.3-16 0-3.2-.7-6-2-8.4-1.3-2.3-3.7-4.5-6.9-6.4-3.2-1.9-7.8-3.7-13.5-5.4l-28.5-7c-21-5.8-31.6-16.7-31.6-32.9 0-7.2 2-13.5 6.1-19.1 4.1-5.6 9.9-9.9 17.5-13.1 7.6-3.2 16.6-4.7 27-4.7 9.7 0 18.3 1.3 25.9 3.8 7.6 2.6 14.1 5.9 19.6 10v19c-6.1-5-13-8.9-20.7-11.6-7.7-2.7-16-4.1-24.9-4.1-10 0-17.8 1.7-23.4 5-5.6 3.3-8.3 7.9-8.3 13.9 0 4.1 1.5 7.6 4.6 10.4 3.1 2.8 8.3 5.2 15.5 7.2l28.8 7.3c12 3.4 20.7 7.9 26 13.7 5.3 5.7 8 12.9 8 21.5 0 7.8-2.1 14.7-6.2 20.7s-10 10.6-17.6 13.9c-7.6 3.3-16.6 4.9-27 4.9-9.6.1-18.7-1.3-27.6-4.1zm104-128.5h18.5v129.5h-18.5V301.9zm175.1.2v129.3H1536l-75.3-112.7v112.7h-17.4V302.1h27.3l72.9 109.4V302.1h17.3zM1688 431.4l-69.6-64.5v64.5H1600V302.1h18.5v56.8l68.2-56.8h25.8l-73.7 60 75.6 69.3H1688zm46.5-129.5h18.5v129.5h-18.5V301.9zM903.7 614.3c-11.1-6-19.7-14.1-25.6-24.4-6-10.3-8.9-21.8-8.9-34.5 0-13.2 3.2-25.1 9.6-35.5 6.4-10.5 15.2-18.6 26.6-24.5 11.4-5.9 24.3-8.8 38.7-8.8 9.8 0 18.7 1.3 26.8 3.8 8.1 2.5 14.9 6.1 20.6 10.6v19.6c-6.5-5.2-13.5-9.3-21.1-12.2-7.6-2.9-16.1-4.4-25.6-4.4-11.3 0-21.2 2.2-29.7 6.5-8.5 4.4-15.1 10.4-19.7 18-4.6 7.7-6.9 16.3-6.9 26s2.3 18.5 6.9 26.2c4.6 7.8 11.2 13.8 19.7 18.3 8.6 4.4 18.5 6.6 29.9 6.6 9.2 0 17.8-1.5 25.9-4.6 8.1-3 15.3-7.4 21.6-13.1v18.7c-6.8 5.8-14.3 10-22.5 12.6-8.1 2.6-17.1 4-27 4-15.1 0-28.2-2.9-39.3-8.9zm142.2-.1c-10.9-6-19.5-14.3-25.6-24.7-6.1-10.4-9.2-22-9.2-34.6 0-12.6 3.1-24.1 9.2-34.6 6.1-10.4 14.7-18.7 25.6-24.7 10.9-6 23.3-9.1 37.1-9.1 13.6 0 25.8 3 36.7 9.1 10.9 6 19.4 14.3 25.6 24.7 6.2 10.4 9.2 22 9.2 34.6 0 12.6-3.1 24.1-9.2 34.6-6.2 10.4-14.7 18.7-25.6 24.7-10.9 6-23.1 9.1-36.7 9.1-13.8-.1-26.2-3.1-37.1-9.1zm64.5-15c7.9-4.4 14.1-10.5 18.4-18.2 4.3-7.7 6.5-16.4 6.5-26.1 0-9.6-2.2-18.3-6.5-26.1-4.3-7.8-10.5-13.8-18.4-18.3-7.9-4.4-17.1-6.6-27.4-6.6-10.5 0-19.8 2.2-27.7 6.6-7.9 4.4-14.1 10.5-18.4 18.3-4.3 7.8-6.5 16.4-6.5 26.1 0 9.7 2.2 18.4 6.5 26.1 4.3 7.7 10.5 13.8 18.4 18.2 7.9 4.4 17.2 6.6 27.7 6.6 10.3 0 19.4-2.2 27.4-6.6zm209.8 20.3l-9.6-114.2-42.6 114.2h-20.5l-42.4-115.3-8.8 115.3h-17.5l10.1-129.3h29.6l39.7 107.8 40.7-107.8h28.2l12.4 129.3h-19.3zm189.1 0l-9.6-114.2-42.7 114.2h-20.5l-42.4-115.3-8.8 115.3h-17.5l10.1-129.3h29.6l39.7 107.8 40.7-107.8h28.2l12.4 129.3h-19.2zm52.4-129.4h18.5v129.5h-18.5V490.1zm150.6 16.8h-45.4v112.6h-18.2V506.9h-46v-16.7h109.6v16.7z"/><path d="M1810.6 506.9h-45.4v112.6H1747V506.9h-46v-16.7h109.6v16.7zm118.9 96.1v16.6h-96.4V490.3h95.5V507h-77v36.3h72v16.2h-72V603h77.9zm117.3-.1v16.6h-96.4V490.2h95.5v16.7h-77v36.3h72v16.2h-72v43.5h77.9zM541.6 417.2l-5.9-3.1-6.8-3.5c-1.7-.9-3.5-1.8-5.3-2.6-4-1.9-8.2-3.7-12.2-5.6-1.6-.7-3.1-1.4-4.7-2l-8.8-3.5 2.4-60.7.5-10.3c1.2-.4 2.4-.8 3.7-1.2 2.5-.8 7.5-2.3 10.1-3.2l7.4-2.7c.4 8.6.8 17.2 1.2 25.9 1.3 28.8 13.3 55.2 29.1 78.7l-10.7-6.2zm-69.4-102.9c-7.2 2.4-14 6.1-19.9 10.8l-1.9-32.4 8.5-2.4c1.4-.4 2.8-.9 4.1-1.4l9.4-3.2 2.8-1c3.5-1.4 7.1-2.7 10.6-4.1 1.7-.6 3.4-1.4 4.9-2.1l10.9-4.9 10.1-5.1c.2-.1 4.1-2.1 7.6-3.9.3 5.7.6 11.5.9 17.3.3 4.6.5 9.2.7 13.9l-48.7 18.5zm-53-224.9v.3l.7 11.5.2 3.4.2 3.4.5 8.4.2 3.4.2 3.3 2.3 37.8.2 3.3.2 3.3.5 8.1.2 3.2.2 3.2 2.2 36.6 4.7 77.8v.9l2.9 49c-3.5 6.5-6.2 13.6-7.7 21.1-.6 3.2-1.1 6.4-1.3 9.8-.1 1.1-.1 2.1-.1 3.2v1.7l-.1 1.5-.5 7.9-.2 3.2-.2 3.2-2.4 36.5-.2 3.1-.2 3.2-.5 7.9-.2 3.1-.2 3.2-.3 4.7c-10 2-27.3 6.5-44.8 16.3-25.1 14.1-55.3 42.1-56.9 95.2v44.5h18.9v-44.1c.9-27.7 10.8-50 29.6-66.6 1-.9 2.1-1.8 3.2-2.7 1-.8 2.1-1.7 3.1-2.5 3.3-2.4 6.7-4.7 10.4-6.8.2-.1.3-.2.5-.3 1.5-.9 3.1-1.7 4.6-2.5 1.8-.9 3.6-1.8 5.4-2.6 9.3-4.2 18.1-6.8 24.7-8.3l-.8 12.2-.2 3.2-.2 3.2-.5 8-.2 3.2-.2 3.2-.2 2.3c-12.8 2.9-28.9 11.3-37.6 28.7-.5 1-1 2-1.4 3.1-.4 1-.8 2-1.2 3.1-.9 2.4-1.6 5-2.2 7.8-.2 1-.4 2.1-.6 3.1-.2 1-.3 2.1-.4 3.1-.3 2.5-.5 5.2-.5 7.9l18.9.2c0-2.2.2-4.3.4-6.3.1-1.1.3-2.1.5-3.1.2-1.1.4-2.1.7-3.1.7-2.8 1.7-5.3 2.8-7.5.5-1 1.1-2 1.6-2.9.6-1 1.3-2 2-2.8l26.4-13.7 8.3-.5.9-14.5.2-3.2.2-3.2.5-8 .2-3.2.2-3.2 2.4-37.1.2-3.2.2-3.2.5-8 .2-3.2.2-3.2 2.4-36.8.2-3.2.2-3.2.5-7.9.2-3.2.1-1v-2.2c.5-18.8 10-35.2 23.9-43.9 4.2-2.6 8.7-4.5 13.5-5.6v2l-.1 1.6-2.5 55.5-.1 3.3-.2 3.3-.4 8.1-.2 3.3-.1 3.3-1.7 37.9-.2 3.3-.1 3.3-.4 8.3-.2 3.3-.2 3.3-1.8 38.9-.2 3.4-.2 3.4-.4 8.6-.2 3.4-.2 3.5-1.9 40.8-.1 3.3v.6l-.2 3.3-.3 6.8-.3 2.4c-.1 1.2-.2 2.4-.4 3.6-.1 1.2-.3 2.4-.4 3.6-1.8 14.4-4.7 27.7-8.6 39.8-.4 1.1-.7 2.2-1.1 3.3-.4 1.1-.8 2.2-1.2 3.2-1 2.7-2 5.4-3.2 8-.5 1.1-.9 2.1-1.4 3.1-.5 1-.9 2.1-1.4 3.1-4 8.2-8.5 15.7-13.7 22.2-18.4 23.5-43.7 35.4-75.3 35.4h-.4c-3.7.1-92.2 2.5-103.2-100.1l-6.4-115.5c3.7 1.2 7.7 1.9 12.1 1.9h.6c16.5-1.1 28.3-13.9 30.2-31.7 4.4 2 9.4 3.1 14.8 3.1.9 0 1.9 0 2.9-.1 17.3-.2 31.4-15.3 31.4-33.8v-78.1c0-1.3-.1-2.6-.2-3.9-.1-1.1-.3-2.1-.5-3.1-.1-.4-.2-.9-.3-1.3-.4-1.8-.9-3.6-1.6-5.3-2.9-7.7-8.2-14.2-15-18.2-.6-.3-1.1-.7-1.7-1l1.7-26.4 3.2-48.7.2-3.4.2-3.3.5-8.3.2-3.3.2-3.3 2.5-37.6.2-3.2.2-3.2.5-8.1.2-3.2.2-3.2 2.4-36.9.2-3.2.2-3.2.5-8 .2-3.2.2-3.2 2.4-36.7.2-3.2.2-3.2.5-7.9.2-3.2.2-3.2 1.3-20.1v-.6c0-7.3 3.9-13.6 9.3-16.3 1.8-.9 3.9-1.4 6-1.4 1.9 0 3.8.4 5.4 1.2 5.8 2.5 9.9 8.9 9.9 16.4l-.2 19.4v6.4l-.1 7.9v6.4l-.3 36.4v6.4l-.1 7.9v6.3l-.3 36.3v6.3l-.1 7.9v6.3l-.3 36.3v6.3l-.1 7.9v6.3l-.3 36.3v6.3l-.1 7.9v6.3l-.2 27.4v6.3l-.1 7.9v6.3l-.2 20.7v3.2l-.1 14.2v3.1l-.1 8.8 9.4.1 9.4.1v-.1l.1-8v-3.1l.1-3.1.1-7.9v-6.3l.4-22.4v-3.2l.1-3.1.1-7.9v-6.3l.4-27.5.1-3.2V297l.1-7.9V286l.1-3.2.6-36.6v-6.3l.1-8v-3.1l.1-3.2.6-36.7v-3.2l.1-3.2.1-8v-6.4l.6-37 .1-3.2.1-3.2.1-8.1.1-3.2v-3.2l.3-20.1V81c.3-5.5 4.8-9.9 10.4-9.9 5.8 0 10.2 4.2 10.8 10.4l2.7 7.9zM251.6 467.1l-1.2-27.2-3.1-67.9c-.6-11.1.8-18.2.8-18.2.6-1.6 1.3-3.1 2.3-4.4 2.8-4 7.1-6.6 11.9-6.6 8.5 0 15.3 7.9 15.3 17.7v104.1c0 7.7-3.3 16.9-12.5 17.7-8-.1-12.4-3.7-13.3-10.9l-.2-4.3zm4-143.9l-.7 1.6.7-1.6zm1.3-3.5l1.8-4c.1-.2.2-.5.3-.7.2-.4.3-.8.6-1.2.7-1.3 1.4-2.7 2-4 3.1-5.5 6.2-10.4 9.4-14.8 3.6-4.7 7.5-9.2 11.5-13.3 4.2-4.1 8.7-8 13.4-11.5 4.5-3.3 9.3-6.3 14.8-9.3.2-.1.5-.3.7-.4l-4.2 63.5c-8 .9-15 4.8-20.2 10.6h-.6c-6.2-6.6-14.8-10.8-24.2-10.8-1.9 0-3.8.2-5.6.5-.6.1-1.2.2-1.8.4l1-2.4 1.1-2.6zm69.4 40.8v78.1c0 8.2-5.7 14.9-12.8 14.9h-.7c-4.9.4-8.8-.7-11.6-3.2-2.8-2.5-4.5-6.4-4.7-10.9v-80.2c.2-4.1 1.6-7.8 3.6-10.6 1.3-1.7 2.8-3.2 4.6-4.1 1.2-.7 2.5-1.2 3.9-1.4.7-.1 1.5-.2 2.3-.2 8.6 0 15.4 7.9 15.4 17.6zm126.9-128.1l2.3-.8c2.9-1.1 5.8-2.2 8.6-3.3 1.4-.5 2.7-1.1 4-1.7l8.9-4 9.1-4.6c1.1-.6 2.3-1.1 3.4-1.8 2.7-1.5 5.4-3 8.1-4.6 6.5-3.9 12.7-8 18.7-12.4.5 14 1.2 28.1 1.9 42.4-.9.5-1.9 1.1-3.1 1.8-3.5 2-7.5 4.3-8.1 4.7-1.2.7-2.4 1.3-3.7 2l-10.4 5.3-10.1 4.6c-1.5.7-3 1.3-4.5 1.9-3.3 1.3-6.7 2.6-10 3.9l-11.3 3.9c-1.3.4-2.5.9-3.8 1.2l-3.8 1.1-2.2-37.3 6-2.3zm195.7 270.4c-11.1-10.4-22.1-21.3-31.7-31.4-30.8-32.7-72.9-77.4-75.1-127.6-.9-21.2-2.1-42.3-3.1-62.8-1.8-33.5-3.4-65.3-4.4-96.5 6.7-5.9 13.1-12.1 19.2-18.6l.9-1c18.6 9.6 60.4 28 110.7 29.2l.5-18.9c-43-1.1-80.1-16.2-98.7-25.3l2.4-2.8c3-3.9 5.8-7.8 8.6-11.9l5-7.7c.9-1.3 1.6-2.6 2.4-3.9l4.8-8.3 4.6-8.9c.6-1.1 1.2-2.3 1.7-3.5 1.3-2.8 2.6-5.6 3.8-8.4.5-1.1.9-2.1 1.3-3.2l1.8-4.5c-.8-.7-1.7-1.4-2.5-2.1-.9-.7-1.7-1.4-2.5-2.1-2.1-1.7-4.3-3.4-6.4-5.1-.9-.7-1.7-1.4-2.6-2-.9-.7-1.8-1.3-2.6-2l-.3.8c-.3.9-.7 1.8-1.1 2.8l-2.1 5.2c-.2.4-.4.9-.5 1.3-.3.9-.7 1.7-1.1 2.6l-3.6 8c-.4 1-1 2-1.5 3l-4.3 8.3-4.5 7.7c-.7 1.2-1.3 2.3-2.1 3.4l-4.7 7.2c-6.5 9.5-13.6 18.6-21.1 26.9-7.7 8.4-16.1 16.3-24.9 23.5-8.6 7-18.1 13.6-28 19.6l-7.6 4.3c-.9.6-1.9 1.1-2.9 1.6l-8.4 4.3-8.3 3.7c-1.2.5-2.3 1-3.5 1.5l-8.1 3.2-2.8.9-2.3-38c.8-.3 1.5-.6 2.3-1l7-3.1 7-3.6c.9-.4 1.8-.9 2.6-1.4l6.3-3.6c8.4-5.1 16.4-10.7 23.7-16.6 7.4-6.1 14.5-12.8 21-19.9 6.3-7 12.3-14.7 17.9-22.8l3.8-5.9c.7-1 1.2-2 1.8-2.9l3.8-6.6 3.6-7c.4-.9.9-1.8 1.3-2.7l2.9-6.4c.4-.8.7-1.6 1-2.4.1-.3.3-.7.4-1.1l1.8-4.5c.3-.7.6-1.5.9-2.3l2.9-8.4.3-.9c-.9-.6-1.9-1.1-2.8-1.7-.9-.6-1.9-1.1-2.8-1.6-2.3-1.4-4.7-2.7-7-4-.9-.5-1.9-1-2.8-1.5-.9-.5-1.9-1-2.8-1.5l-1 3.5c-.1.2-.1.4-.2.6-.1.3-.1.5-.3.8l-2.6 7.7c-.2.6-.5 1.2-.7 1.9l-1.7 4.2c-.1.3-.3.7-.4 1-.2.6-.5 1.2-.8 1.9l-2.8 6.1c-.3.7-.7 1.4-1.1 2.2l-3.3 6.3-3.5 6c-.5.8-.9 1.6-1.4 2.4l-3.5 5.5c-4.9 7.2-10.3 14.1-16 20.4-5.9 6.3-12.2 12.3-18.8 17.8-6.5 5.3-13.7 10.3-21.2 14.8l-5.8 3.3c-.7.4-1.4.7-2.1 1.1l-6.4 3.3-1.8.8-2.4-39.8c6-3.7 11.6-7.6 16.6-11.7 5.3-4.4 10.3-9.1 15-14.2 4.5-5 8.8-10.4 12.8-16.3.9-1.4 1.8-2.8 2.7-4.1.5-.7.9-1.4 1.3-2.1l2.7-4.6 2.6-5.1c.3-.7.7-1.3.9-1.9.7-1.5 1.4-3 2-4.4.3-.6.6-1.2.8-1.8.1-.2.2-.5.3-.7l1.3-3.3c.2-.5.4-1 .6-1.6l2-5.8c.1-.3.2-.7.3-1l.1-.4c.4-1.6.9-3.2 1.3-4.7.2-.6.4-1.3.5-1.9 0-.3.1-.5.2-.8l.2-.9-3-1.2-3-1.2c-2.5-.9-4.9-1.8-7.4-2.7-1-.4-2-.7-3-1.1-1-.3-2-.7-3-1l-.7 3.1c-.1.3-.1.6-.2.9-.1.4-.2.7-.3 1.2-.4 1.4-.9 2.9-1.2 4.3 0 .2-.1.3-.1.5 0 .1-.1.3-.1.4l-1.8 5.2c-.1.4-.3.8-.5 1.1l-1.2 2.9c-.1.3-.2.5-.3.8-.1.3-.3.7-.5 1.1-.6 1.4-1.3 2.8-1.9 4.2l-.6 1.2-2.3 4.4-2.4 4.1c-.3.5-.5.9-.9 1.5-.8 1.3-1.7 2.6-2.4 3.7-3.4 4.9-7.1 9.6-10.9 13.8-4 4.3-8.3 8.4-12.8 12.1-1.6 1.3-3.4 2.6-5.1 3.9l-.1-1.1c-.1-11.7-4.3-22.2-11.7-28.9-1.4-1.3-3-2.4-4.6-3.4 2.6-2.3 5.1-4.6 7.5-7.2 2.6-2.9 5.1-6.1 7.5-9.6l.1-.2c.5-.8 1-1.6 1.4-2.2.4-.5.7-1 .9-1.4l.1-.2c.2-.4.5-.8.7-1.2.2-.4.5-.8.7-1.2l.8-1.5.6-1.2.2-.3c.2-.4.5-.9.6-1.3.4-.8.7-1.6 1.1-2.5.3-.5.4-.9.5-1.2 0-.1.1-.2.2-.4.2-.4.3-.8.5-1.3.1-.2.2-.4.2-.5.1-.3.2-.6.3-.8l.1-.2c.1-.4.3-.9.4-1.3.2-.4.3-.9.5-1.3l.2-.6.3-.9v-.2c.2-.9.5-1.7.7-2.6.2-.5.3-1 .3-1.3 0-.1 0-.2.1-.4.1-.4.2-.9.3-1.3l.4-1.4.1-.3c.1-.4.1-.9.2-1.3-1-.2-2-.5-3.1-.7-1-.2-2-.5-3.1-.7-2.6-.6-5.1-1.1-7.7-1.6-1-.2-2.1-.4-3.1-.5-1-.2-2.1-.4-3.1-.6 0 .1 0 .2-.1.3-.1.4-.1.7-.2 1.1l-.3 1c-.1.4-.2.9-.3 1.2 0 .2-.1.4-.1.6v.1l-.1.2c-.3.8-.5 1.7-.7 2.4 0 .1 0 .2-.1.3v.1l-.2.5c-.1.4-.3.8-.4 1.2-.1.4-.2.7-.3 1.1 0 .1-.1.2-.2.3-.1.2-.2.4-.2.6-.2.4-.3.8-.4 1.1-.1.2-.1.4-.2.6v.2l-.1.2c-.4.8-.8 1.6-1.1 2.4l-.1.2c0 .1-.1.2-.2.3l-.2.3c-.2.4-.4.8-.6 1.1-.2.3-.3.6-.5 1l-.6.9c-.2.4-.4.8-.7 1.2l-.1.2c-.1.1-.1.3-.2.4l-.1.1c-.5.7-.9 1.4-1.4 2.1-1.9 2.6-3.8 5.1-5.7 7.2-2.2 2.3-4.5 4.5-6.8 6.4-2.2 1.7-4.7 3.5-7.6 5.3-.7.4-1.5.8-2.3 1.3-.1.1-.2.1-.3.1l-.3.2-1.2.6-.9.5h-.1l.1-13.8c0-19.5-14.3-35.4-32.3-36.5l.3.6h-3.1c-91.4 1.8-182.2 37.5-252 107.3-20 20-37.2 41.8-51.7 64.8-.1.2-.3.5-.4.7-4.6 7.4-9 15-13 22.7-.2.5-.5.9-.7 1.4-2.5 4.7-4.8 9.4-7 14.2l-1.6 3.5c-2 4.4-4 8.9-5.8 13.4l-.4 1.1c-2.1 5.2-4.1 10.4-5.9 15.6-.1.4-.3.8-.4 1.3-1.4 4-2.7 8-3.9 12.1l-2.4 8c-4.8 17-8.4 34.3-10.7 51.7l-.7 5.6C1.4 334.2.6 345.1.3 356c0 .9-.1 1.9-.1 2.8v14.3c0 2.7.1 5.4.2 8 0 1.1.1 2.2.1 3.2.1 1.1.1 2.2.2 3.2 0 0 18.7-2.4 19.8-25.1l.1-3.5c.1-3.5.2-7.1.3-10.7.2-4 .6-8.1.9-12.1l.2-2.3c.1-1.5.3-3.1.4-4.6l.8-6.4.9-7c.3-1.9.5-3.7.8-5.6.7-4.2 1.5-8.4 2.3-12.7.3-1.8.7-3.5 1.1-5.3l3.2-13.3c.4-1.7.9-3.4 1.4-5.1l3-10.4.9-3c1.3-4 2.7-8.1 4.2-12.2l.4-1c.2-.6.4-1.3.7-1.9l5.9-14.9c.7-1.6 1.4-3.3 2.2-4.9l3.7-8.1c.7-1.5 1.4-2.9 2.1-4.4 1.9-3.8 3.9-7.6 5.9-11.4 8.3-15.2 17.5-29.7 27.4-43 10.2-13.5 21.4-26.4 33.3-38.4 12-11.9 25-23 38.6-33.1 13.4-9.8 27.9-19 43.1-27.1 3.8-2 7.6-3.9 11.5-5.8 1.4-.7 2.8-1.4 4.4-2.1l8-3.6c1.7-.8 3.4-1.5 5-2.2l6-2.4 9-3.5c.6-.3 1.3-.5 2-.7l1-.3c4.1-1.4 8.2-2.8 12.2-4.1l13.3-3.8c1.7-.5 3.4-.9 5.1-1.4l6.3-1.5 7.2-1.6c1.8-.4 3.5-.8 5.3-1.1 4.2-.8 8.5-1.5 12.7-2.2 1.8-.3 3.6-.6 5.5-.8l10.5-1.3c-1.7 4.3-2.7 9.1-2.8 14.1l-1.5 23-1.2.1c-1.6.2-3.4.4-5 .7-3.7.6-7.5 1.3-11.2 2-1.7.3-3.3.6-4.9 1l-12 2.8c-1.5.4-2.9.8-4.4 1.2l-9.3 2.6-2.8.9-10.8 3.6-.8.3c-.6.2-1.3.4-1.9.7l-13.3 5.2c-1.4.6-2.7 1.2-4 1.8l-7.6 3.4c-1.3.6-2.7 1.2-4 1.9-3.4 1.7-6.8 3.4-10.2 5.2-13.7 7.4-26.7 15.5-38.6 24.3-12.1 9-23.8 19-34.6 29.6-10.7 10.7-20.7 22.3-29.8 34.4-8.8 11.9-17.1 24.8-24.6 38.5-1.8 3.4-3.5 6.7-5.2 10.1-.7 1.3-1.3 2.7-1.9 4l-3.5 7.6c-.6 1.3-1.2 2.7-1.8 4.1l-5.3 13.2c-.2.6-.5 1.3-.7 1.9l-.3.9c-1.3 3.6-2.5 7.2-3.7 10.8L68 283.6c-.4 1.5-.8 2.9-1.3 4.5L63.9 300c-.4 1.6-.7 3.2-1 4.8-.7 3.7-1.4 7.4-2 11.1-.3 1.7-.5 3.4-.8 5l-1.5 12c-.2 1.4-.3 2.8-.4 4.2l-.2 3c-.3 3.2-.5 6.5-.7 9.9v1.1c-.1 3.6-.3 7.2-.3 10.9v.2c0 .8-.1 1.5-.1 2.3v.9c0 .4-.1.9-.1 1.3s-.1.9-.1 1.3l-.1.9c-.1.9-.3 1.7-.3 2.7v.3c0 .2-.1.4-.1.5-.1.4-.2.9-.2 1.3-.1.4-.1.7-.2 1.1l-.3 1c-.1.4-.2.9-.3 1.2 0 .2-.1.4-.1.6v.1l-.1.2c-.3.8-.5 1.7-.7 2.4 0 .1-.1.2-.1.3l-.2.5c-.1.4-.3.8-.4 1.2-.1.4-.2.7-.3 1.1 0 .1-.1.2-.2.4s-.2.4-.2.6c-.2.4-.3.8-.4 1.1-.1.2-.1.4-.2.6v.1l-.1.2c-.4.8-.8 1.6-1.1 2.4l-.1.2c0 .1-.1.2-.2.3l-.2.3-.6 1.2c-.2.3-.3.6-.5 1l-.6.9c-.2.4-.5.8-.7 1.2l-.1.2c-.1.1-.1.3-.2.4l-.1.1c-.5.7-.9 1.4-1.4 2.1-1.9 2.6-3.8 5.1-5.7 7.2-2.2 2.3-4.5 4.5-6.8 6.4-2.2 1.7-4.7 3.5-7.6 5.3-.7.4-1.5.8-2.2 1.2l-.1.1c-.1 0-.2.1-.3.1l-.3.2-1.2.6-.9.5c-.3.1-.7.3-1 .4-.4.2-.8.3-1.2.5l-.2.1c-.1.1-.3.1-.4.2h-.2c-.8.3-1.6.6-2.4 1l-.8.3c-.4.1-.8.3-1.2.4-.2.1-.4.2-.6.2-.1 0-.2.1-.3.1-.4.1-.7.2-1.1.3-.4.1-.8.2-1.3.4l-.2.1c-.1 0-.3.1-.4.1h-.2c-.8.2-1.7.4-2.7.6h-.3c-.2 0-.4 0-.5.1-.4.1-.9.1-1.3.2-.1 0-.2 0-.3.1.2 1 .3 2.1.5 3.1s.4 2.1.5 3.1c.4 2.6.9 5.1 1.4 7.7.2 1 .4 2.1.6 3.1.2 1 .4 2.1.6 3.1h.1c.5-.1.9-.2 1.4-.3h.4c.4-.1.8-.1 1.4-.3.9-.2 1.7-.4 2.5-.6.6-.1 1.2-.3 1.6-.4l.2-.1c.4-.1.9-.3 1.3-.4.4-.1.9-.2 1.3-.3l.2-.1c.3-.1.6-.2.8-.3l.6-.2c.4-.1.9-.3 1.3-.4l.8-.2c.1 0 .3-.1.4-.1l.5-.2c.9-.4 1.7-.7 2.4-1 .6-.2 1.1-.4 1.5-.6l.2-.1 1.2-.6c.4-.2.9-.4 1.3-.5l1.5-.8c.4-.2.8-.4 1.3-.6l.3-.1c.4-.2.8-.4 1.3-.7.8-.5 1.6-.9 2.4-1.3l.2-.1c3.7-2.3 7-4.6 10-7 3.1-2.6 6.1-5.4 8.9-8.5 2.6-2.9 5.1-6.1 7.5-9.6l.1-.2c.5-.8 1-1.6 1.4-2.2.4-.5.7-1 .9-1.4l.1-.2c.2-.4.5-.8.7-1.2.2-.4.5-.8.7-1.2l.8-1.6.6-1.2.2-.3c.2-.4.5-.8.6-1.3.4-.8.7-1.6 1.1-2.4.3-.5.4-.9.5-1.3 0-.1.1-.2.2-.4.2-.4.3-.9.5-1.3.1-.2.2-.4.2-.6.1-.3.2-.5.3-.8l.1-.2c.1-.4.3-.9.4-1.3.1-.4.3-.9.5-1.3l.2-.6.3-.9v-.2c.2-.9.5-1.7.7-2.6.2-.5.3-.9.3-1.3 0-.1 0-.2.1-.4.1-.4.2-.9.3-1.3l.4-1.4.1-.3c.1-.5.1-.9.2-1.4.1-.5.2-.9.3-1.4l.1-.3c.1-.4.2-.8.2-1.4.1-.9.2-1.8.4-2.8v-.2c.1-.3.1-.5.1-.8v-.7c0-.5.1-.9.1-1.4 0-.5.1-.9.1-1.4 0-.4.1-.8 0-1.1v-.7l.1-2.9.2-3.3h-.1c.1-2.2.1-4.3.2-6.5l.1-1.5c.2-3 .4-6 .7-9l.3-3.2c.1-1.2.2-2.5.3-3.7l1.5-11.4c.2-1.5.4-3 .7-4.5.6-3.5 1.3-7.1 1.9-10.6.3-1.4.6-2.8.9-4.3l2.7-11.3c.3-1.3.7-2.6 1.1-3.9l2.6-9 .8-2.5c1.1-3.4 2.3-6.8 3.5-10.2l.3-.9c.2-.5.3-1 .6-1.5l5-12.4c.6-1.3 1.1-2.5 1.7-3.8l3.3-7.2c.6-1.2 1.1-2.4 1.7-3.5 1.6-3.2 3.3-6.4 4.9-9.5 7-12.8 14.7-24.8 22.9-35.9 8.5-11.3 17.9-22.1 27.9-32.1 10.1-9.9 21-19.2 32.3-27.7 11.1-8.2 23.3-15.8 36-22.7 3.2-1.6 6.4-3.3 9.6-4.9 1.1-.6 2.3-1.1 3.5-1.7l7.2-3.2c1.3-.6 2.6-1.1 3.7-1.7l12.6-4.9c.5-.2 1-.4 1.6-.5l.9-.3c3.4-1.2 6.8-2.3 10.2-3.4l11.3-3.3c1.4-.4 2.7-.7 4-1.1l11.4-2.6c1.5-.3 2.9-.6 4.3-.9 3.5-.6 7.1-1.3 10.6-1.9.5-.1 1.1-.2 1.6-.3l-2.5 37.3c-.9.2-1.8.3-2.7.5-1.4.2-2.7.5-4 .8l-9.8 2.3c-1.1.3-2.1.6-3.2.9l-8 2.3-2.3.7c-2.9 1-5.9 1.9-8.8 2.9l-.7.3c-.5.2-1 .3-1.5.5l-10.9 4.2c-1.1.5-2.2 1-3.3 1.4l-6.3 2.8c-1.1.5-2.2 1-3.2 1.5-2.8 1.4-5.5 2.8-8.3 4.2-11.2 6-21.8 12.7-31.5 19.8-9.9 7.4-19.4 15.5-28.2 24.2-8.7 8.8-16.9 18.2-24.4 28.1-7.2 9.6-13.9 20.2-20.1 31.4-1.4 2.7-2.8 5.5-4.2 8.2-.6 1.1-1.1 2.1-1.5 3.2l-2.9 6.4c-.5 1.1-.9 2.1-1.4 3.2l-4.3 10.7c-.2.5-.4 1.1-.6 1.6l-.3.7c-1 2.9-2 5.8-3 8.8l-3 10.2-.9 3.3-2.3 9.8c-.3 1.2-.6 2.5-.8 3.8-.6 3-1.1 6.1-1.7 9.1-.3 1.4-.4 2.7-.6 4l-1.3 9.9c-.1 1.1-.2 2.2-.3 3.2l-.3 3.6c-.2 2.3-.4 4.7-.5 7.1l-.1 2.9c-.1 2.1-.1 4.1-.2 6.2v.5c-.1 1.4-.1 2.8-.1 4.2v2.1l-.4 5.7c0 .2 0 .3-.1.5v.4c-.2 1.5-.4 3-.6 4.6 0 .4-.1.8-.2 1.2 0 .3-.1.5-.1.8l-.8 4.4-1 4.3c-.1.3-.1.6-.2.8-.1.4-.2.7-.3 1.2-.4 1.5-.9 2.9-1.2 4.3 0 .2-.1.3-.1.5 0 .1-.1.3-.1.4l-1.8 5.2c-.1.4-.3.8-.5 1.1l-1.2 2.9c-.1.3-.2.5-.3.8-.1.4-.3.7-.5 1.1-.6 1.4-1.3 2.8-1.9 4.2l-.6 1.2-2.3 4.4-2.4 4.1c-.3.5-.5 1-.9 1.5-.8 1.3-1.7 2.6-2.4 3.7-3.4 4.9-7.1 9.6-10.9 13.8-4 4.3-8.3 8.4-12.8 12.1-4.3 3.5-9.2 6.9-14.3 10-1.3.7-2.6 1.5-4 2.3-.4.3-.8.4-1.2.6l-4.5 2.3-4.4 2c-.5.2-1 .5-1.5.7-1.4.5-2.8 1.1-4.3 1.7l-5 1.7c-.4.1-.8.3-1 .4l-4.7 1.3c-.5.1-1 .3-1.7.4-1.5.3-3 .7-4.5 1-.3.1-.5.1-.8.1.3 1 .7 2 1 3 .3 1 .7 2 1 3 .9 2.5 1.7 5 2.6 7.4.4 1 .7 2 1.1 3 .4 1 .8 2 1.1 3 1-.2 2.1-.5 3.1-.7.9-.2 1.7-.4 2.4-.6l5.2-1.5c.5-.2 1-.3 1.5-.5l4.5-1.5 1.4-.5c1.5-.6 3.1-1.2 4.5-1.8.8-.3 1.5-.6 2.2-.9l4.9-2.2 5.1-2.6c.6-.3 1.3-.6 1.8-1 1.4-.8 2.9-1.7 4.4-2.5 6-3.7 11.7-7.7 16.8-11.8 5.3-4.4 10.3-9.1 15-14.2 4.5-5 8.8-10.4 12.8-16.2.9-1.4 1.8-2.8 2.7-4.1.5-.7.9-1.4 1.3-2.1l2.7-4.6 2.6-5.1c.3-.7.7-1.3.9-1.9.7-1.5 1.4-3 2-4.4.3-.6.6-1.2.8-1.8.1-.2.2-.5.3-.7l1.3-3.3c.2-.5.4-.9.6-1.5l2-5.8c.1-.3.2-.7.3-1l.1-.4c.4-1.6.9-3.2 1.3-4.7.2-.6.4-1.3.5-1.9 0-.3.1-.5.2-.8l1.1-4.9 1.1-5.8c.1-.6.2-1.3.3-1.9.2-1.7.4-3.3.6-5l.1-.4c0-.3.1-.6.1-1l.5-6.2c.1-.5.1-1 .1-1.5v-1.3c0-.7 0-1.5.1-2.2l.1-2.7.1-3.3c0-.8 0-1.5.1-2.3l.1-2.9c.1-2.1.3-4.2.5-6.2l.3-3.7c.1-.9.1-1.9.2-2.8l1.2-9.3c.2-1.2.3-2.3.5-3.5l1.6-8.6c.2-1.1.4-2.2.7-3.3l2.1-9.1c.3-1 .5-2 .8-3l2.1-7.4 3.7-10.9c.1-.4.3-.8.4-1.2l4-10c.4-.9.8-1.9 1.3-2.8l2.8-6.1c.4-.9.8-1.8 1.3-2.8l4-7.7c5.6-10.3 11.9-20 18.4-28.9 6.9-9.1 14.4-17.8 22.4-25.8 8.1-8 16.9-15.5 26-22.3 8.9-6.5 18.6-12.7 28.9-18.2l7.8-4c.9-.5 1.8-.9 2.7-1.3l6.1-2.7c1-.4 1.9-.9 2.8-1.2l10.1-4c.4-.2.8-.3 1.2-.4l9-3 9.4-2.7c1-.3 2-.5 2.8-.8l9.2-2.1c.3-.1.6-.1.9-.2l-2.5 37.9-.9.3-6.4 1.8-9.2 3c-.4.1-.9.3-1.2.4L291 184l-2.1.9-5.3 2.4c-.8.4-1.7.7-2.4 1.1l-6.4 3.3c-8.8 4.7-17 9.9-24.5 15.4-7.7 5.7-15.1 12.1-22 18.8-6.8 6.8-13.1 14.2-18.9 21.8-5.5 7.4-10.7 15.6-15.6 24.4l-3.2 6.3c-.4.8-.8 1.7-1.2 2.5l-2.4 5.4c-.3.7-.6 1.4-1 2.2l-3.3 8.2c-.2.4-.3.8-.5 1.3l-2.5 7.3-2.4 8.1c-.2.8-.4 1.5-.7 2.4l-1.8 7.7c-.2 1-.5 1.9-.6 2.9l-1.3 6.9c-.2 1.1-.3 2.1-.5 3.1l-1 7.7c-.1.8-.1 1.6-.2 2.4l-.3 3.7c-.1 1.6-.3 3.2-.4 4.9 0 1.1-.1 2.2-.1 3.4l-.3 11.3c0 .5 0 .9-.1 1.5l-.6 8.2c0 .3-.1.6-.1.9l-.9 7.2c-.1.7-.2 1.4-.3 2-.1.3-.1.7-.2 1l-1.2 6.4-1.5 6.3c-.1.4-.2.7-.3 1.1-.2.6-.3 1.3-.5 2l-1.8 6.3c-.1.2-.1.4-.2.7-.1.3-.2.5-.3.8l-2.6 7.7c-.2.6-.5 1.2-.7 1.8l-1.7 4.2c-.1.3-.3.7-.4 1-.2.6-.5 1.2-.8 1.9l-2.8 6.1c-.3.7-.7 1.5-1.1 2.2l-3.3 6.3-3.5 6c-.5.8-.9 1.6-1.5 2.4l-3.5 5.5c-4.9 7.2-10.3 14.1-16 20.4-5.9 6.3-12.2 12.3-18.8 17.8-6.5 5.3-13.7 10.3-21.2 14.8l-5.8 3.3c-.7.4-1.4.7-2.1 1.1l-6.4 3.2-6.4 2.9c-.8.4-1.6.7-2.5 1.1l-6.1 2.4-7.2 2.4c-.7.2-1.3.4-1.9.6l-6.4 1.8c.5.9 1 1.9 1.4 2.9.5.9 1 1.9 1.5 2.8 1.2 2.4 2.5 4.7 3.8 7.1.5.9 1.1 1.9 1.6 2.8.5.9 1.1 1.9 1.6 2.8l2.3-.6c.8-.2 1.5-.5 2.2-.7l6.3-2.1 8.4-3.2c1.1-.4 2.1-.9 3.1-1.3l7-3.2 7.1-3.6c.9-.5 1.8-.9 2.6-1.4l6.3-3.6c8.4-5.1 16.4-10.7 23.7-16.6 7.4-6.1 14.5-12.8 21-19.9 6.3-7 12.3-14.7 17.9-22.8l3.8-5.9c.7-1 1.2-2 1.8-3l3.8-6.6 3.6-7c.4-.9.9-1.8 1.3-2.7l2.9-6.4c.4-.8.7-1.6 1-2.5.1-.3.3-.7.4-1l1.8-4.5c.3-.7.6-1.5.9-2.3l2.9-8.4c.1-.4.3-.9.4-1.3l2.1-7.4c.3-.8.5-1.7.7-2.6.1-.4.2-.7.3-1.1l1.6-7.1 1.5-8c.2-.9.3-1.8.4-2.6l1-7.7c0-.4.1-.8.1-1.3l.7-8.8c.1-.7.1-1.3.1-2l.2-6.3.1-4.9c0-1.2.1-2.4.1-3.5.1-1.4.2-2.7.3-4.1.1-.8.1-1.6.2-2.4l.1-1.2c.1-.7.1-1.3.2-1.9l.9-7.2c.1-.8.2-1.6.4-2.5l1.2-6.6c.1-.8.3-1.6.5-2.4l1.6-6.9c.2-.7.4-1.3.6-2l1.7-5.9 2.8-8.2c.1-.3.2-.5.3-.8l3-7.6c.3-.6.5-1.2.8-1.8l2.3-5c.3-.6.6-1.3.9-2l3-5.8c4.3-7.9 9-15.2 13.9-21.8 5.2-6.9 10.9-13.5 17-19.6 6.2-6 12.8-11.7 19.7-16.9 6.6-4.9 14-9.5 21.9-13.8l5.9-3c.6-.3 1.3-.6 1.9-.9l5.1-2.3c.6-.3 1.2-.5 1.7-.8l7.7-3c.3-.1.5-.2.8-.3l6.8-2.3 1.5-.4-2.6 39.4h-.1l-5.4 2.4-1.8.9c-1.5.8-3 1.5-4.5 2.3-6.4 3.5-12.1 7.1-17.4 11-5.5 4.1-10.7 8.6-15.7 13.4-4.8 4.9-9.3 10.1-13.5 15.5-3.9 5.2-7.5 10.9-11.1 17.4-.8 1.5-1.5 3-2.2 4.3l-.9 1.8-2.4 5.2-2.4 5.9c-.1.3-.3.7-.4 1l-.1.4c-.5 1.6-1.1 3.1-1.6 4.7l-1.7 6c-.1.5-.3 1-.5 1.6l-1.3 5.4c-.2.6-.3 1.4-.4 2.1-.3 1.6-.6 3.3-.9 4.8-.2.8-.3 1.6-.4 2.3l-.7 5.5c-.1.6-.1 1.1-.1 1.7 0 .3 0 .6-.1 1 0 .7-.1 1.5-.2 2.2-.1.9-.2 1.9-.2 3v.6l-.4 13.9c0 .6 0 1.3-.1 2l-.8 10.8c0 .4-.1.9-.2 1.3l-1.2 9.4c-.1 1-.3 2-.5 2.9l-1.7 9.6-2 8.4c-.1.4-.2.9-.3 1.3-.2.9-.4 1.8-.7 2.8l-2.6 9.1c-.1.4-.2.8-.4 1.2l-3.5 10.2c-.3.9-.7 1.8-1.1 2.7l-2.1 5.3c-.2.4-.3.9-.5 1.3-.3.9-.7 1.7-1.1 2.6l-3.6 8-1.5 3-4.3 8.3-4.5 7.7c-.7 1.2-1.3 2.3-2 3.4l-4.7 7.2c-6.5 9.5-13.6 18.6-21.1 26.9-7.7 8.4-16.1 16.3-24.9 23.5-8.6 7-18.1 13.6-28 19.6l-7.6 4.3c-.9.5-1.9 1.1-2.9 1.5l-8.4 4.3-8.3 3.7c-1.2.5-2.3 1-3.5 1.5l-8.1 3.1-4.5 1.5c.7.9 1.3 1.8 2 2.7.7.9 1.3 1.8 2 2.7 1.7 2.2 3.3 4.4 5.1 6.5.7.9 1.4 1.7 2.1 2.6.7.9 1.4 1.7 2.1 2.6 2.3-.9 4.7-1.8 7-2.7 1.4-.5 2.8-1.1 4.1-1.7l8.8-4 9-4.6c1.1-.6 2.3-1.2 3.4-1.8 2.7-1.5 5.4-3 8.1-4.6 10.8-6.5 21.1-13.7 30.5-21.4 9.5-7.9 18.6-16.5 27-25.6 8.2-9.1 16-18.9 23-29.3l5-7.7c.9-1.3 1.6-2.6 2.4-3.9l4.8-8.2 4.6-9c.6-1.1 1.2-2.3 1.7-3.5 1.3-2.8 2.6-5.6 3.8-8.4.5-1.1.9-2.1 1.3-3.2l2.7-6.8c.3-.8.7-1.7 1-2.6l1 18.9c0 1.2.1 2.4.2 3.6l2.5 44.9-1 3.1c-23 67.1-114.8 105.5-114.8 105.5l-9 4c.8.8 1.1 1 1.9 1.8.4.3.7.7 1.1 1.1l1.4 1.4c2 1.9 4.1 3.8 6.2 5.7.8.8 1.7 1.5 2.6 2.3.9.8 1.7 1.5 2.6 2.3l1.7-.8c68.2-26.4 101.6-69.2 110.3-81.8L241 616v.1l-4.3 3.5c-26 21.1-56.3 37.7-77.2 48l-1.3.6-4.2 2 5.3 2.9c2.5 1.4 4.9 3 7.4 4.7 2.6 1.8 5.3 3.6 8.1 5.1l1.4.8 1.4-.7c.7-.3 1.3-.6 2-1 22.3-11 46.4-26.2 65.5-41.1 3.8 15.4 9.5 28.2 16.1 38.8l-.3.1c-16.9 10.4-32 17.8-39.4 21.3l-2.5 1.2-4.1 1.9 6.8 2.7c4.3 1.7 8.3 3.7 12.6 5.9l1.8.9 1.3-.5c1.4-.6 2.8-1.2 4.3-1.8 10.7-4.6 21.2-10 31.3-16 10.9 12.2 23.1 20.3 34.2 25.7 13.8 6.7 27.1 9.9 37.4 11.5 8 1.2 14.1 1.4 17.1 1.4h1.8c5.2 0 10.3-.3 15.2-.9.3 0 .6-.1.9-.1v.1h1.4l-.2-.2c29.4-3.9 54.3-18 72.7-41.4 4.2-5.4 8.1-11.3 11.6-17.6 1 1.5 1.9 2.9 2.9 4.5.8 1.3 1.5 2.7 2.3 4 .3.4.4.8.6 1.2l2.3 4.5 2 4.4c.2.5.5 1 .7 1.5.5 1.4 1.1 2.8 1.7 4.2l1.7 5c.1.4.3.8.3 1l1.3 4.7c.1.5.3 1 .4 1.7.3 1.3.6 2.7.9 4.1 1-.3 2-.7 3-1 1-.3 2-.7 3-1 2.5-.9 5-1.8 7.4-2.7 1-.4 2-.8 3-1.1l3-1.2c-.1-.6-.3-1.1-.4-1.7-.2-.9-.4-1.6-.6-2.4l-1.5-5.3c-.2-.5-.3-1-.5-1.5l-1.6-4.7c0-.2-.1-.3-.2-.6l-.2-.6c-.6-1.5-1.2-3.1-1.8-4.6-.3-.8-.6-1.5-1-2.3l-2.2-4.9-2.6-5.1c-.3-.7-.7-1.3-1-1.9-.8-1.4-1.7-2.9-2.5-4.4-3.3-5.4-6.9-10.5-10.6-15.3 4.8-12.6 8.6-26.5 11.1-41.4 5.6 5.3 10.9 11 15.8 16.9 5.3 6.5 10.3 13.6 14.8 21.2l3.3 5.8c.4.7.7 1.4 1.1 2.1l3.3 6.4 2.8 6.4c.4.9.8 1.7 1.1 2.6l2.4 6.1 2.5 7.3c.2.6.4 1.3.6 1.8l1.3 4.7c1-.5 1.9-1 2.9-1.5s1.9-1 2.8-1.5c2.4-1.3 4.7-2.6 7.1-3.9.9-.5 1.9-1.1 2.8-1.6.9-.6 1.9-1.1 2.8-1.6l-.1-.4c-.2-.8-.5-1.5-.7-2.3l-2.1-6.2-3.2-8.4c-.4-1.1-.9-2.1-1.3-3.1l-3.2-7-3.6-7c-.4-.9-.9-1.8-1.4-2.6l-3.6-6.3c-5.1-8.5-10.7-16.4-16.6-23.7-6.1-7.4-12.8-14.5-19.9-21-2.8-2.5-5.7-5-8.7-7.4l2-43.3 4.3 2.8c9.5 6.5 18.6 13.6 26.9 21.1 8.4 7.7 16.3 16.1 23.5 24.9 7 8.6 13.6 18.1 19.6 28l4.3 7.6c.5.9 1 1.9 1.5 2.8l4.3 8.5 3.7 8.3c.5 1.2 1 2.3 1.5 3.4l3.1 8.1.8 2.3c.9-.7 1.8-1.4 2.7-2 .9-.6 1.7-1.3 2.6-2 2.2-1.7 4.3-3.4 6.5-5.1.9-.7 1.7-1.4 2.6-2.1.9-.7 1.7-1.4 2.6-2.1-.6-1.6-1.2-3.2-1.8-4.7-.5-1.4-1.1-2.8-1.7-4.1l-4-8.9-4.5-9c-.6-1.1-1.2-2.3-1.8-3.4-1.5-2.7-3-5.4-4.6-8.1-6.5-10.8-13.7-21.1-21.3-30.5-7.9-9.5-16.5-18.6-25.6-27-9.1-8.2-18.9-16-29.3-23l-7.7-5c-1.3-.8-2.6-1.6-3.8-2.3l-3.2-1.8L494 480c.1 0 .1 0 .2.1l10.2 5.3 9.5 5.5c1.5.9 2.9 1.7 4.3 2.6 3 1.9 6 3.9 9 5.8 11.8 8 23.1 16.9 33.5 26.3 10.4 9.6 20.3 20 29.2 30.9 8.8 10.8 17 22.5 24.4 34.8 1.8 3.1 3.6 6.2 5.3 9.4.7 1.2 1.3 2.4 2 3.8l5.2 10.4 3.1 6.9 2.4-2.4c.8-.8 1.5-1.7 2.3-2.5 2-2.1 3.9-4.2 5.8-6.3.8-.9 1.5-1.7 2.3-2.6.8-.9 1.5-1.7 2.2-2.6l-5.2-10.3c-.7-1.4-1.5-2.9-2.3-4.3-1.8-3.3-3.7-6.6-5.7-9.9-7.9-13.2-16.7-25.8-26.1-37.3-9.6-11.7-20.1-22.8-31.3-33.1-11.1-10.1-23.2-19.5-35.8-28.2-3.2-2.1-6.3-4.1-9.5-6.1-1.6-1.1-3.3-2-5-3l-9.9-5.7-10.9-5.6c-1.4-.7-2.9-1.5-4.4-2.2-1.3-.6-2.6-1.2-4-1.8l1.8-38.8 2 .8c1.5.6 2.8 1.1 4.3 1.8 3.9 1.7 7.8 3.5 11.7 5.3 1.7.7 3.2 1.5 4.9 2.4l12 6.3 11.2 6.4c1.8 1 3.6 2.1 5.3 3.2 3.6 2.3 7.2 4.6 10.7 6.9l4.8 3.2c12.4 8.4 25.2 17.1 36.3 27.1l5.7 5.4 3.2 3.1.2-.3c8.4 8.7 17.6 17.7 26.9 26.4 12 11.2 28.2 24.6 44.5 36.9l5.6-7.5 5.7-7.6c-.4-.3-.7-.6-1.1-.8-15.1-12.2-30.3-24.8-41.6-35.3z"/><path d="M629.3 219.1l41.3 17.4-8.1 16.6-40.2-16.9c2.5 2.5 4.1 5.9 4.1 9.7 0 7.5-6.1 13.7-13.7 13.7-7.5 0-13.7-6.1-13.7-13.7 0-3.8 1.6-7.3 4.1-9.8L562.8 253l-6.5-16.6 41.3-17.4.2-.1c10-4 21.3-4 31.3 0m52.8 237h42.9V437h-42.9v18.9zM654.8 405v18.9h78.3V405h-78.3zm78.2-32.3c.7-.1 1.3-.2 1.9-.3l-1.9-9.5-1.8-9c-27.2 5.5-42.1-8.5-42.6-9l-13.4 13.3c.8.8 16.1 15.8 43.6 15.8 4.4 0 9.2-.4 14.2-1.3z"/></g><defs><clipPath id="a"><path fill="#fff" d="M0 0h2055v733.7H0z"/></clipPath></defs></svg>