<svg version="1.1" id="svg1" width="554.44" height="363.4" xmlns="http://www.w3.org/2000/svg"><g id="g1"><g id="group-R5"><path id="path2" d="M28.244 361.832h497.945c14.732 0 26.676-11.944 26.676-26.676V28.386c0-14.733-11.944-26.675-26.676-26.675H28.244C13.51 1.71 1.568 13.653 1.568 28.385v306.77c0 14.733 11.943 26.677 26.676 26.677" fill="#fff" fill-opacity="1" fill-rule="nonzero" stroke="#33b540" stroke-width="3.137" stroke-linecap="butt" stroke-linejoin="miter" stroke-miterlimit="10" stroke-dasharray="none" stroke-opacity="1"/><path id="path3" d="M16.824 1362.22H4144.8V2494.5c0 120.49-97.68 218.17-218.18 218.17H235.004c-120.496 0-218.18-97.68-218.18-218.17V1362.22" transform="matrix(.13333 0 0 -.13333 0 363.4)" fill="#33b540" fill-opacity="1" fill-rule="nonzero" stroke="none"/><path id="path4" d="M2.243 181.77H552.64V30.8c0-16.065-13.024-29.09-29.09-29.09H31.333c-16.066 0-29.09 13.025-29.09 29.09z" fill="none" stroke="#33b540" stroke-width="3.421" stroke-linecap="butt" stroke-linejoin="miter" stroke-miterlimit="10" stroke-dasharray="none" stroke-opacity="1"/><path id="path5" d="M335.965 563.559c31.832-16.309 83.07-32.61 135.863-32.61 48.137 0 71.426 16.301 71.426 42.711 0 25.61-23.289 39.59-82.293 59.77-88.508 31.832-147.512 79.968-147.512 157.609 0 92.383 78.414 163.813 210.395 163.813 62.109 0 107.14-11.641 141.301-26.403l-29.504-112.558c-22.512 10.078-61.332 24.839-113.348 24.839-42.699 0-65.992-15.531-65.992-38.832 0-26.386 27.949-36.476 93.941-61.328 93.942-34.941 135.863-84.629 135.863-157.59 0-90.058-69.871-166.929-222.816-166.929-62.887 0-124.219 16.301-153.723 31.828l26.399 115.68" transform="matrix(.13333 0 0 -.13333 0 363.4)" fill="#33b540" fill-opacity="1" fill-rule="nonzero" stroke="none"/><path id="path6" d="M856.125 829.082H722.59V947.09h409.92V829.082H996.648V423.809H856.125v405.273" transform="matrix(.13333 0 0 -.13333 0 363.4)" fill="#33b540" fill-opacity="1" fill-rule="nonzero" stroke="none"/><path id="path7" d="M1329.7 947.09V423.809h-140.52V947.09h140.52" transform="matrix(.13333 0 0 -.13333 0 363.4)" fill="#33b540" fill-opacity="1" fill-rule="nonzero" stroke="none"/><path id="path8" d="M1418.21 947.09h336.16V832.18h-195.64v-96.27h184V622.559h-184v-198.75h-140.52V947.09" transform="matrix(.13333 0 0 -.13333 0 363.4)" fill="#33b540" fill-opacity="1" fill-rule="nonzero" stroke="none"/><path id="path9" d="M1935.27 829.082h-133.53V947.09h409.92V829.082h-135.87V423.809h-140.52v405.273" transform="matrix(.13333 0 0 -.13333 0 363.4)" fill="#33b540" fill-opacity="1" fill-rule="nonzero" stroke="none"/><path id="path10" d="M2596.73 634.988h-187.88v-96.269h210.4v-114.91h-350.92V947.09h340.05V832.18h-199.53v-83.84h187.88V634.988" transform="matrix(.13333 0 0 -.13333 0 363.4)" fill="#33b540" fill-opacity="1" fill-rule="nonzero" stroke="none"/><path id="path11" d="M2689.11 947.09h140.52V541.039h201.08v-117.23h-341.6V947.09" transform="matrix(.13333 0 0 -.13333 0 363.4)" fill="#33b540" fill-opacity="1" fill-rule="nonzero" stroke="none"/><path id="path12" d="M3100.59 563.559c31.83-16.309 83.07-32.61 135.86-32.61 48.14 0 71.43 16.301 71.43 42.711 0 25.61-23.29 39.59-82.3 59.77-88.5 31.832-147.51 79.968-147.51 157.609 0 92.383 78.42 163.813 210.4 163.813 62.11 0 107.14-11.641 141.3-26.403l-29.5-112.558c-22.52 10.078-61.34 24.839-113.35 24.839-42.7 0-65.99-15.531-65.99-38.832 0-26.386 27.94-36.476 93.94-61.328 93.94-34.941 135.86-84.629 135.86-157.59 0-90.058-69.87-166.929-222.82-166.929-62.88 0-124.22 16.301-153.72 31.828l26.4 115.68" transform="matrix(.13333 0 0 -.13333 0 363.4)" fill="#33b540" fill-opacity="1" fill-rule="nonzero" stroke="none"/><path id="path13" d="M3847.45 634.988h-187.88v-96.269h210.39v-114.91h-350.91V947.09h340.04V832.18h-199.52v-83.84h187.88V634.988" transform="matrix(.13333 0 0 -.13333 0 363.4)" fill="#33b540" fill-opacity="1" fill-rule="nonzero" stroke="none"/><path id="path14" d="M277.637 2194.63c14.742-7.95 39.039-15.49 62.543-15.49 24.297 0 35.851 9.63 35.851 23.87 0 14.66-11.554 22.62-40.234 34.76-44.617 20.11-67.719 47.74-67.719 83.34 0 49.01 36.649 87.95 102.774 87.95 27.886 0 49.398-5.86 64.132-12.97l-13.144-59.06c-10.754 5.02-27.879 12.15-51.387 12.15-21.508 0-33.062-9.22-33.062-21.78 0-13.82 11.554-20.11 44.617-35.19 45.012-19.26 63.734-47.32 63.734-83.75 0-49.84-36.648-89.21-108.351-89.21-29.879 0-58.157 7.95-71.707 15.07l11.953 60.31" transform="matrix(.13333 0 0 -.13333 0 363.4)" fill="#fff" fill-opacity="1" fill-rule="nonzero" stroke="none"/><path id="path15" d="M536.141 2123.02l-77.676 282.28h75.687l24.696-112.66c7.172-31 13.547-62.41 19.121-97.17h.801c5.574 33.51 11.945 66.17 18.722 96.33l24.696 113.5h74.089l-79.664-282.28h-80.472" transform="matrix(.13333 0 0 -.13333 0 363.4)" fill="#fff" fill-opacity="1" fill-rule="nonzero" stroke="none"/><path id="path16" d="M875.504 2238.61h-85.25v-55.7h95.207v-59.89H721.34v282.28h158.945v-59.9h-90.031v-47.74h85.25v-59.05" transform="matrix(.13333 0 0 -.13333 0 363.4)" fill="#fff" fill-opacity="1" fill-rule="nonzero" stroke="none"/><path id="path17" d="M923.277 2123.02v282.28h76.082l41.431-91.3c11.95-24.71 27.09-61.99 37.05-91.72h1.2c-3.2 33.08-5.58 77.06-5.58 122.7v60.32h62.14v-282.28h-70.11l-42.62 94.23c-12.75 27.64-28.686 65.34-39.042 95.49h-1.195c1.594-33.93 2.789-77.9 2.789-126.48v-63.24h-62.145" transform="matrix(.13333 0 0 -.13333 0 363.4)" fill="#fff" fill-opacity="1" fill-rule="nonzero" stroke="none"/><path id="path18" d="M1184.56 2194.63c14.74-7.95 39.04-15.49 62.54-15.49 24.3 0 35.85 9.63 35.85 23.87 0 14.66-11.55 22.62-40.23 34.76-44.62 20.11-67.72 47.74-67.72 83.34 0 49.01 36.65 87.95 102.77 87.95 27.89 0 49.4-5.86 64.14-12.97l-13.15-59.06c-10.75 5.02-27.88 12.15-51.38 12.15-21.52 0-33.07-9.22-33.07-21.78 0-13.82 11.55-20.11 44.62-35.19 45.01-19.26 63.74-47.32 63.74-83.75 0-49.84-36.65-89.21-108.36-89.21-29.87 0-58.16 7.95-71.7 15.07l11.95 60.31" transform="matrix(.13333 0 0 -.13333 0 363.4)" fill="#fff" fill-opacity="1" fill-rule="nonzero" stroke="none"/><path id="path19" d="M1386.89 2405.3h68.12v-121.04h.8c5.18 10.89 10.36 22.2 15.53 33.08l45.02 87.96h82.06l-76.88-121.46 79.67-160.82h-78.88l-48.99 112.66-18.33-26.8v-85.86h-68.12v282.28" transform="matrix(.13333 0 0 -.13333 0 363.4)" fill="#fff" fill-opacity="1" fill-rule="nonzero" stroke="none"/><path id="path20" d="M1744.57 2239.45l-10.75 51.51c-3.59 15.92-7.97 41.46-11.56 58.22h-.79c-3.98-16.76-7.97-42.72-11.16-58.22l-10.75-51.51zm-53.38-54.03l-13.14-62.4h-70.11l71.7 282.28h89.23l70.91-282.28h-72.11l-14.73 62.4h-61.75" transform="matrix(.13333 0 0 -.13333 0 363.4)" fill="#fff" fill-opacity="1" fill-rule="nonzero" stroke="none"/><path id="path21" d="M344.164 1774.22c3.582-.83 7.566-.83 13.543-.83 27.09 0 41.824 16.32 41.824 39.79 0 21.35-11.945 36.43-37.043 36.43-8.765 0-14.742-.84-18.324-1.68zm-68.117 124.81c18.32 3.35 44.613 5.86 79.672 5.86 37.043 0 64.133-6.28 83.254-22.2 17.922-14.65 28.679-39.37 28.679-66.59 0-30.15-9.558-54.44-25.89-70.78-20.321-19.26-50.989-28.06-82.461-28.06-5.977 0-11.156.42-15.137.84v-97.58h-68.117v278.51" transform="matrix(.13333 0 0 -.13333 0 363.4)" fill="#fff" fill-opacity="1" fill-rule="nonzero" stroke="none"/><path id="path22" d="M607.84 1674.96c29.879 0 46.211 34.77 46.211 87.95 0 48.59-16.332 85.44-46.61 85.44-29.476 0-47.406-36.85-47.007-86.28-.399-52.34 17.531-87.11 47.007-87.11zm-2.789-58.62c-78.473 0-117.113 68.26-117.113 144.48 0 78.73 44.218 146.17 121.097 146.17 82.461 0 117.516-72.46 117.516-141.56 0-95.49-47.403-149.09-121.098-149.09h-.402" transform="matrix(.13333 0 0 -.13333 0 363.4)" fill="#fff" fill-opacity="1" fill-rule="nonzero" stroke="none"/><path id="path23" d="M763.551 1692.13c14.742-7.95 39.039-15.49 62.547-15.49 24.293 0 35.847 9.63 35.847 23.87 0 14.66-11.554 22.62-40.234 34.76-44.617 20.11-67.719 47.75-67.719 83.35 0 49 36.653 87.95 102.774 87.95 27.886 0 49.398-5.86 64.14-12.98l-13.152-59.06c-10.754 5.02-27.879 12.15-51.387 12.15-21.512 0-33.062-9.22-33.062-21.78 0-13.82 11.55-20.1 44.617-35.19 45.016-19.26 63.738-47.32 63.738-83.75 0-49.84-36.652-89.21-108.355-89.21-29.871 0-58.157 7.96-71.703 15.07l11.949 60.31" transform="matrix(.13333 0 0 -.13333 0 363.4)" fill="#fff" fill-opacity="1" fill-rule="nonzero" stroke="none"/><path id="path24" d="M1010.51 1840.39h-61.748v62.41h193.598v-62.41h-62.94v-219.87h-68.91v219.87" transform="matrix(.13333 0 0 -.13333 0 363.4)" fill="#fff" fill-opacity="1" fill-rule="nonzero" stroke="none"/><path id="path25" d="M1172.6 1902.8h68.12v-121.04h.8c5.18 10.89 10.36 22.2 15.53 33.09l45.02 87.95h82.06l-76.88-121.46 79.67-160.82h-78.88l-48.99 112.66-18.33-26.8v-85.86h-68.12v282.28" transform="matrix(.13333 0 0 -.13333 0 363.4)" fill="#fff" fill-opacity="1" fill-rule="nonzero" stroke="none"/><path id="path26" d="M1503.99 1674.96c29.88 0 46.22 34.77 46.22 87.95 0 48.59-16.34 85.44-46.61 85.44-29.48 0-47.41-36.85-47.01-86.28-.4-52.34 17.53-87.11 47.01-87.11zm-2.78-58.62c-78.48 0-117.12 68.26-117.12 144.48 0 78.73 44.22 146.17 121.1 146.17 82.46 0 117.52-72.46 117.52-141.56 0-95.49-47.41-149.09-121.1-149.09h-.4" transform="matrix(.13333 0 0 -.13333 0 363.4)" fill="#fff" fill-opacity="1" fill-rule="nonzero" stroke="none"/><path id="path27" d="M1726.64 1675.38c3.18-.84 8.76-.84 13.14-.84 39.04-.41 68.52 26.39 68.52 91.73 0 54.86-25.5 82.92-63.74 82.92-8.76 0-14.34-.84-17.92-1.67zm-68.52 223.65c19.92 3.35 47.8 5.86 76.88 5.86 47 0 77.28-8.8 101.58-27.64 27.88-21.78 44.22-57.8 44.22-110.14 0-56.55-18.72-95.5-44.61-117.27-26.3-22.2-65.34-32.25-113.94-32.25-29.48 0-51.38 2.51-64.13 4.18v277.26" transform="matrix(.13333 0 0 -.13333 0 363.4)" fill="#fff" fill-opacity="1" fill-rule="nonzero" stroke="none"/><path id="path28" d="M1915.83 1902.8h68.91v-221.55h92.02v-60.73h-160.93v282.28" transform="matrix(.13333 0 0 -.13333 0 363.4)" fill="#fff" fill-opacity="1" fill-rule="nonzero" stroke="none"/><path id="path29" d="M2203.41 1674.96c29.87 0 46.21 34.77 46.21 87.95 0 48.59-16.34 85.44-46.61 85.44-29.48 0-47.41-36.85-47.01-86.28-.4-52.34 17.53-87.11 47.01-87.11zm-2.79-58.62c-78.48 0-117.12 68.26-117.12 144.48 0 78.73 44.22 146.17 121.1 146.17 82.46 0 117.51-72.46 117.51-141.56 0-95.49-47.4-149.09-121.1-149.09h-.39" transform="matrix(.13333 0 0 -.13333 0 363.4)" fill="#fff" fill-opacity="1" fill-rule="nonzero" stroke="none"/><path id="path30" d="M2394.18 1840.39h-61.75v62.41h193.6v-62.41h-62.94v-219.87h-68.91v219.87" transform="matrix(.13333 0 0 -.13333 0 363.4)" fill="#fff" fill-opacity="1" fill-rule="nonzero" stroke="none"/><path id="path31" d="M2606.86 1840.39h-61.75v62.41h193.61v-62.41h-62.94v-219.87h-68.92v219.87" transform="matrix(.13333 0 0 -.13333 0 363.4)" fill="#fff" fill-opacity="1" fill-rule="nonzero" stroke="none"/><path id="path32" d="M2923.13 1736.11h-85.24v-55.7h95.2v-59.89h-164.12v282.28h158.94v-59.89h-90.02v-47.75h85.24v-59.05" transform="matrix(.13333 0 0 -.13333 0 363.4)" fill="#fff" fill-opacity="1" fill-rule="nonzero" stroke="none"/><path id="path33" d="M3039.01 1780.09h15.55c25.09 0 39.03 15.07 39.03 36.43 0 20.94-11.55 33.93-34.25 34.35-10.76 0-17.13-.42-20.33-1.68zm-68.11 118.94c19.52 3.35 47.8 5.86 79.27 5.86 37.84 0 66.93-5.44 86.84-21.78 17.14-14.65 25.1-33.92 25.1-61.15 0-33.08-21.51-59.05-44.22-68.68v-1.26c17.53-7.95 27.09-25.54 33.07-51.09 7.17-28.9 15.93-69.52 21.11-80.41h-70.91c-3.58 7.95-10.35 32.25-17.12 65.75-6.38 33.93-15.54 41.05-35.06 41.05h-9.97v-106.8h-68.11v278.51" transform="matrix(.13333 0 0 -.13333 0 363.4)" fill="#fff" fill-opacity="1" fill-rule="nonzero" stroke="none"/><path id="path34" d="M3270.02 1902.8v-282.28h-68.91v282.28h68.91" transform="matrix(.13333 0 0 -.13333 0 363.4)" fill="#fff" fill-opacity="1" fill-rule="nonzero" stroke="none"/><path id="path35" d="M3471.17 1736.11h-85.25v-55.7h95.21v-59.89h-164.12v282.28h158.94v-59.89h-90.03v-47.75h85.25v-59.05" transform="matrix(.13333 0 0 -.13333 0 363.4)" fill="#fff" fill-opacity="1" fill-rule="nonzero" stroke="none"/><path id="path36" d="M3563.55 1840.39h-61.75v62.41h193.61v-62.41h-62.95v-219.87h-68.91v219.87" transform="matrix(.13333 0 0 -.13333 0 363.4)" fill="#fff" fill-opacity="1" fill-rule="nonzero" stroke="none"/><path id="path37" d="M3724.46 1692.13c14.74-7.95 39.04-15.49 62.55-15.49 24.3 0 35.85 9.63 35.85 23.87 0 14.66-11.55 22.62-40.24 34.76-44.61 20.11-67.71 47.75-67.71 83.35 0 49 36.64 87.95 102.77 87.95 27.88 0 49.39-5.86 64.14-12.98l-13.15-59.06c-10.76 5.02-27.89 12.15-51.39 12.15-21.51 0-33.07-9.22-33.07-21.78 0-13.82 11.56-20.1 44.62-35.19 45.02-19.26 63.73-47.32 63.73-83.75 0-49.84-36.64-89.21-108.35-89.21-29.87 0-58.16 7.96-71.7 15.07l11.95 60.31" transform="matrix(.13333 0 0 -.13333 0 363.4)" fill="#fff" fill-opacity="1" fill-rule="nonzero" stroke="none"/></g></g></svg>